<mxfile host="app.diagrams.net" modified="2023-10-09T10:48:58.915Z" agent="Mozilla/5.0 (Windows NT 10.0; Win64; x64) AppleWebKit/537.36 (KHTML, like Gecko) Chrome/117.0.0.0 Safari/537.36" version="21.6.6" etag="z7M4bXQ1gKzJ4WqliSEe" type="github">
  <diagram name="第 1 页" id="apcOGy3LnLtrIuISCmq4">
    <mxGraphModel>
      <root>
        <mxCell id="0" />
        <mxCell id="1" parent="0" />
      </root>
    </mxGraphModel>
  </diagram>
</mxfile>
